solid texture_stim
facet normal -7.0863291883310194e-06 0.9238795480396113 -0.38268339481078534
  outer loop
    vertex 35.486143848439916 4.38994502094422 79.27450757063846
    vertex 40.84920018862803 2.077154569495489 73.6909381153101
    vertex 35.48620725068723 -3.876018068258352 59.318709668394604
  endloop
endfacet
facet normal -7.0863291883310194e-06 0.9238795480396113 -0.38268339481078534
  outer loop
    vertex 40.84920018862803 2.077154569495489 73.6909381153101
    vertex 35.486143848439916 4.38994502094422 79.27450757063846
    vertex 57.08614136505534 4.389945058159069 79.27450757063833
  endloop
endfacet
facet normal -7.0863291883310194e-06 0.9238795480396113 -0.38268339481078534
  outer loop
    vertex 40.84920018862803 2.077154569495489 73.6909381153101
    vertex 57.08614136505534 4.389945058159069 79.27450757063833
    vertex 52.11179221830914 1.908292171722694 73.28326822444465
  endloop
endfacet
facet normal -7.0863291883310194e-06 0.9238795480396113 -0.38268339481078534
  outer loop
    vertex 52.11179221830914 1.908292171722694 73.28326822444465
    vertex 57.08614136505534 4.389945058159069 79.27450757063833
    vertex 52.04706197302905 -2.4112228466848173 62.85503768305517
  endloop
endfacet
facet normal -7.0863291883310194e-06 0.9238795480396113 -0.38268339481078534
  outer loop
    vertex 35.48620725068723 -3.876018068258352 59.318709668394604
    vertex 40.784469943347915 -2.2423604489119224 63.262707573920814
    vertex 57.0862047673026 -3.8760180310434884 59.31870966839463
  endloop
endfacet
facet normal -7.0863291883310194e-06 0.9238795480396113 -0.38268339481078534
  outer loop
    vertex 40.784469943347915 -2.2423604489119224 63.262707573920814
    vertex 35.48620725068723 -3.876018068258352 59.318709668394604
    vertex 40.84920018862803 2.077154569495489 73.6909381153101
  endloop
endfacet
facet normal -7.0863291883310194e-06 0.9238795480396113 -0.38268339481078534
  outer loop
    vertex 57.0862047673026 -3.8760180310434884 59.31870966839463
    vertex 40.784469943347915 -2.2423604489119224 63.262707573920814
    vertex 52.04706197302905 -2.4112228466848173 62.85503768305517
  endloop
endfacet
facet normal -7.0863291883310194e-06 0.9238795480396113 -0.38268339481078534
  outer loop
    vertex 57.0862047673026 -3.8760180310434884 59.31870966839463
    vertex 52.04706197302905 -2.4112228466848173 62.85503768305517
    vertex 57.08614136505534 4.389945058159069 79.27450757063833
  endloop
endfacet
facet normal 7.0863291883310194e-06 -0.9238795480396113 0.38268339481078534
  outer loop
    vertex 35.48622765931737 -6.536791427725095 60.42083795360603
    vertex 57.0861617736855 1.729171698692315 80.37663585584978
    vertex 35.48616425706996 1.7291716614774675 80.37663585584968
  endloop
endfacet
facet normal 7.0863291883310194e-06 -0.9238795480396113 0.38268339481078534
  outer loop
    vertex 57.0861617736855 1.729171698692315 80.37663585584978
    vertex 35.48622765931737 -6.536791427725095 60.42083795360603
    vertex 57.08622517593279 -6.5367913905102455 60.42083795360621
  endloop
endfacet
facet normal 2.9352891767058455e-06 -0.38268346990859153 -0.9238795169555954
  outer loop
    vertex 57.08622517593279 -6.5367913905102455 60.42083795360621
    vertex 35.48620725068723 -3.876018068258352 59.318709668394604
    vertex 57.0862047673026 -3.8760180310434884 59.31870966839463
  endloop
endfacet
facet normal 2.9352891767058455e-06 -0.38268346990859153 -0.9238795169555954
  outer loop
    vertex 35.48620725068723 -3.876018068258352 59.318709668394604
    vertex 57.08622517593279 -6.5367913905102455 60.42083795360621
    vertex 35.48622765931737 -6.536791427725095 60.42083795360603
  endloop
endfacet
facet normal -0.9999999999999999 -1.7229098115396763e-09 3.748359754888351e-18
  outer loop
    vertex 35.48622765931737 -6.536791427725095 60.42083795360603
    vertex 35.486143848439916 4.38994502094422 79.27450757063846
    vertex 35.48620725068723 -3.876018068258352 59.318709668394604
  endloop
endfacet
facet normal -0.9999999999999999 -1.7229098115396763e-09 3.748359754888351e-18
  outer loop
    vertex 35.486143848439916 4.38994502094422 79.27450757063846
    vertex 35.48622765931737 -6.536791427725095 60.42083795360603
    vertex 35.48616425706996 1.7291716614774675 80.37663585584968
  endloop
endfacet
facet normal -2.9352891767058455e-06 0.38268346990859153 0.9238795169555954
  outer loop
    vertex 35.486143848439916 4.38994502094422 79.27450757063846
    vertex 57.0861617736855 1.729171698692315 80.37663585584978
    vertex 57.08614136505534 4.389945058159069 79.27450757063833
  endloop
endfacet
facet normal -2.9352891767058455e-06 0.38268346990859153 0.9238795169555954
  outer loop
    vertex 57.0861617736855 1.729171698692315 80.37663585584978
    vertex 35.486143848439916 4.38994502094422 79.27450757063846
    vertex 35.48616425706996 1.7291716614774675 80.37663585584968
  endloop
endfacet
facet normal 0.9999999999999999 1.7229098115396763e-09 -3.748359754888351e-18
  outer loop
    vertex 57.08614136505534 4.389945058159069 79.27450757063833
    vertex 57.08622517593279 -6.5367913905102455 60.42083795360621
    vertex 57.0862047673026 -3.8760180310434884 59.31870966839463
  endloop
endfacet
facet normal 0.9999999999999999 1.7229098115396763e-09 -3.748359754888351e-18
  outer loop
    vertex 57.08622517593279 -6.5367913905102455 60.42083795360621
    vertex 57.08614136505534 4.389945058159069 79.27450757063833
    vertex 57.0861617736855 1.729171698692315 80.37663585584978
  endloop
endfacet
facet normal -0.9999999999999999 -1.7229098115396763e-09 3.748359754888351e-18
  outer loop
    vertex 35.486226503156914 -6.385923718093649 28.965819524319677
    vertex 35.48614269350871 4.540812730557228 10.112149907287348
    vertex 35.48616310221056 1.8800393710893981 9.010021622075902
  endloop
endfacet
facet normal -0.9999999999999999 -1.7229098115396763e-09 3.748359754888351e-18
  outer loop
    vertex 35.48614269350871 4.540812730557228 10.112149907287348
    vertex 35.486226503156914 -6.385923718093649 28.965819524319677
    vertex 35.48620609445514 -3.7251503586258377 30.067947809531134
  endloop
endfacet
facet normal -2.9352289485740455e-06 0.3826834699078213 -0.9238795169559145
  outer loop
    vertex 57.08616061882605 1.8800394083042449 9.010021622075907
    vertex 35.48614269350871 4.540812730557228 10.112149907287348
    vertex 57.08614021012417 4.540812767772074 10.112149907287346
  endloop
endfacet
facet normal -2.9352289485740455e-06 0.3826834699078213 -0.9238795169559145
  outer loop
    vertex 35.48614269350871 4.540812730557228 10.112149907287348
    vertex 57.08616061882605 1.8800394083042449 9.010021622075907
    vertex 35.48616310221056 1.8800393710893981 9.010021622075902
  endloop
endfacet
facet normal -7.086354135618214e-06 0.9238795480396663 0.3826833948106519
  outer loop
    vertex 35.48620609445514 -3.7251503586258377 30.067947809531134
    vertex 40.78446994454677 -2.2423604489299014 26.488176732893372
    vertex 40.84920019050651 2.077154569467369 16.05994619150403
  endloop
endfacet
facet normal -7.086354135618214e-06 0.9238795480396663 0.3826833948106519
  outer loop
    vertex 40.78446994454677 -2.2423604489299014 26.488176732893372
    vertex 35.48620609445514 -3.7251503586258377 30.067947809531134
    vertex 57.08620361107039 -3.725150321410976 30.06794780953113
  endloop
endfacet
facet normal -7.086354135618214e-06 0.9238795480396663 0.3826833948106519
  outer loop
    vertex 40.78446994454677 -2.2423604489299014 26.488176732893372
    vertex 57.08620361107039 -3.725150321410976 30.06794780953113
    vertex 52.04706197420118 -2.4112228467023926 26.89584662375905
  endloop
endfacet
facet normal -7.086354135618214e-06 0.9238795480396663 0.3826833948106519
  outer loop
    vertex 52.04706197420118 -2.4112228467023926 26.89584662375905
    vertex 57.08620361107039 -3.725150321410976 30.06794780953113
    vertex 57.08614021012417 4.540812767772074 10.112149907287346
  endloop
endfacet
facet normal -7.086354135618214e-06 0.9238795480396663 0.3826833948106519
  outer loop
    vertex 35.48614269350871 4.540812730557228 10.112149907287348
    vertex 40.84920019050651 2.077154569467369 16.05994619150403
    vertex 57.08614021012417 4.540812767772074 10.112149907287346
  endloop
endfacet
facet normal -7.086354135618214e-06 0.9238795480396663 0.3826833948106519
  outer loop
    vertex 40.84920019050651 2.077154569467369 16.05994619150403
    vertex 35.48614269350871 4.540812730557228 10.112149907287348
    vertex 35.48620609445514 -3.7251503586258377 30.067947809531134
  endloop
endfacet
facet normal -7.086354135618214e-06 0.9238795480396663 0.3826833948106519
  outer loop
    vertex 57.08614021012417 4.540812767772074 10.112149907287346
    vertex 40.84920019050651 2.077154569467369 16.05994619150403
    vertex 52.111792220161014 1.90829217169494 16.46761608236955
  endloop
endfacet
facet normal -7.086354135618214e-06 0.9238795480396663 0.3826833948106519
  outer loop
    vertex 57.08614021012417 4.540812767772074 10.112149907287346
    vertex 52.111792220161014 1.90829217169494 16.46761608236955
    vertex 52.04706197420118 -2.4112228467023926 26.89584662375905
  endloop
endfacet
facet normal 0.9999999999999999 1.7229098115396763e-09 -3.748359754888351e-18
  outer loop
    vertex 57.08614021012417 4.540812767772074 10.112149907287346
    vertex 57.08622401977248 -6.385923680878818 28.965819524319677
    vertex 57.08616061882605 1.8800394083042449 9.010021622075907
  endloop
endfacet
facet normal 0.9999999999999999 1.7229098115396763e-09 -3.748359754888351e-18
  outer loop
    vertex 57.08622401977248 -6.385923680878818 28.965819524319677
    vertex 57.08614021012417 4.540812767772074 10.112149907287346
    vertex 57.08620361107039 -3.725150321410976 30.06794780953113
  endloop
endfacet
facet normal 7.086354135618214e-06 -0.9238795480396663 -0.3826833948106519
  outer loop
    vertex 57.08616061882605 1.8800394083042449 9.010021622075907
    vertex 35.486226503156914 -6.385923718093649 28.965819524319677
    vertex 35.48616310221056 1.8800393710893981 9.010021622075902
  endloop
endfacet
facet normal 7.086354135618214e-06 -0.9238795480396663 -0.3826833948106519
  outer loop
    vertex 35.486226503156914 -6.385923718093649 28.965819524319677
    vertex 57.08616061882605 1.8800394083042449 9.010021622075907
    vertex 57.08622401977248 -6.385923680878818 28.965819524319677
  endloop
endfacet
facet normal 2.9352289485740455e-06 -0.3826834699078213 0.9238795169559145
  outer loop
    vertex 35.48620609445514 -3.7251503586258377 30.067947809531134
    vertex 57.08622401977248 -6.385923680878818 28.965819524319677
    vertex 57.08620361107039 -3.725150321410976 30.06794780953113
  endloop
endfacet
facet normal 2.9352289485740455e-06 -0.3826834699078213 0.9238795169559145
  outer loop
    vertex 57.08622401977248 -6.385923680878818 28.965819524319677
    vertex 35.48620609445514 -3.7251503586258377 30.067947809531134
    vertex 35.486226503156914 -6.385923718093649 28.965819524319677
  endloop
endfacet
facet normal 0.9238790709807244 0.38268454659653184 -9.91581472572545e-17
  outer loop
    vertex 80.97088683571467 4.179167735802284 55.54041484758625
    vertex 82.07303540358302 1.5183943782233127 33.94041484758631
    vertex 80.97088683641863 4.179167735791739 33.94041484758628
  endloop
endfacet
facet normal 0.9238790709807244 0.38268454659653184 -9.91581472572545e-17
  outer loop
    vertex 82.07303540358302 1.5183943782233127 33.94041484758631
    vertex 80.97088683571467 4.179167735802284 55.54041484758625
    vertex 82.07303540287887 1.5183943782338571 55.540414847586206
  endloop
endfacet
facet normal 3.259523119465142e-11 -4.884570067972633e-13 -1.0
  outer loop
    vertex 82.07303540358302 1.5183943782233127 33.94041484758631
    vertex 61.01515463012004 -4.086795387783117 33.94041484758631
    vertex 80.97088683641863 4.179167735791739 33.94041484758628
  endloop
endfacet
facet normal 3.259523119465142e-11 -4.884570067972633e-13 -1.0
  outer loop
    vertex 61.01515463012004 -4.086795387783117 33.94041484758631
    vertex 82.07303540358302 1.5183943782233127 33.94041484758631
    vertex 62.117303197284016 -6.747568745351551 33.94041484758632
  endloop
endfacet
facet normal -0.9238790709807264 -0.38268454659652756 9.723379428021118e-17
  outer loop
    vertex 62.117303197284016 -6.747568745351551 33.94041484758632
    vertex 61.015154629415974 -4.086795387772563 55.54041484758628
    vertex 61.01515463012004 -4.086795387783117 33.94041484758631
  endloop
endfacet
facet normal -0.9238790709807264 -0.38268454659652756 9.723379428021118e-17
  outer loop
    vertex 61.015154629415974 -4.086795387772563 55.54041484758628
    vertex 62.117303197284016 -6.747568745351551 33.94041484758632
    vertex 62.117303196579975 -6.7475687453410025 55.540414847586185
  endloop
endfacet
facet normal -0.382689406045918 0.9238770581090443 -2.3899034606780124e-16
  outer loop
    vertex 80.97088683571467 4.179167735802284 55.54041484758625
    vertex 64.60574797808 -2.599517852496952 50.50063530754377
    vertex 61.015154629415974 -4.086795387772563 55.54041484758628
  endloop
endfacet
facet normal -0.382689406045918 0.9238770581090443 -2.3899034606780124e-16
  outer loop
    vertex 64.60574797808 -2.599517852496952 50.50063530754377
    vertex 80.97088683571467 4.179167735802284 55.54041484758625
    vertex 74.67192492624386 1.5700433837796295 50.50063530754374
  endloop
endfacet
facet normal -0.382689406045918 0.9238770581090443 -2.3899034606780124e-16
  outer loop
    vertex 74.67192492624386 1.5700433837796295 50.50063530754374
    vertex 80.97088683571467 4.179167735802284 55.54041484758625
    vertex 74.67192492661117 1.5700433837742638 39.23677745471852
  endloop
endfacet
facet normal -0.382689406045918 0.9238770581090443 -2.3899034606780124e-16
  outer loop
    vertex 74.67192492661117 1.5700433837742638 39.23677745471852
    vertex 80.97088683571467 4.179167735802284 55.54041484758625
    vertex 80.97088683641863 4.179167735791739 33.94041484758628
  endloop
endfacet
facet normal -0.382689406045918 0.9238770581090443 -2.3899034606780124e-16
  outer loop
    vertex 61.01515463012004 -4.086795387783117 33.94041484758631
    vertex 64.60677267357333 -2.5990934084360684 39.236777454718535
    vertex 80.97088683641863 4.179167735791739 33.94041484758628
  endloop
endfacet
facet normal -0.382689406045918 0.9238770581090443 -2.3899034606780124e-16
  outer loop
    vertex 64.60677267357333 -2.5990934084360684 39.236777454718535
    vertex 61.01515463012004 -4.086795387783117 33.94041484758631
    vertex 61.015154629415974 -4.086795387772563 55.54041484758628
  endloop
endfacet
facet normal -0.382689406045918 0.9238770581090443 -2.3899034606780124e-16
  outer loop
    vertex 64.60677267357333 -2.5990934084360684 39.236777454718535
    vertex 61.015154629415974 -4.086795387772563 55.54041484758628
    vertex 64.60574797808 -2.599517852496952 50.50063530754377
  endloop
endfacet
facet normal -0.382689406045918 0.9238770581090443 -2.3899034606780124e-16
  outer loop
    vertex 80.97088683641863 4.179167735791739 33.94041484758628
    vertex 64.60677267357333 -2.5990934084360684 39.236777454718535
    vertex 74.67192492661117 1.5700433837742638 39.23677745471852
  endloop
endfacet
facet normal -3.259523119465142e-11 4.884570067972633e-13 1.0
  outer loop
    vertex 61.015154629415974 -4.086795387772563 55.54041484758628
    vertex 82.07303540287887 1.5183943782338571 55.540414847586206
    vertex 80.97088683571467 4.179167735802284 55.54041484758625
  endloop
endfacet
facet normal -3.259523119465142e-11 4.884570067972633e-13 1.0
  outer loop
    vertex 82.07303540287887 1.5183943782338571 55.540414847586206
    vertex 61.015154629415974 -4.086795387772563 55.54041484758628
    vertex 62.117303196579975 -6.7475687453410025 55.540414847586185
  endloop
endfacet
facet normal 0.3826894060459187 -0.923877058109044 2.2959710361314575e-16
  outer loop
    vertex 82.07303540358302 1.5183943782233127 33.94041484758631
    vertex 62.117303196579975 -6.7475687453410025 55.540414847586185
    vertex 62.117303197284016 -6.747568745351551 33.94041484758632
  endloop
endfacet
facet normal 0.3826894060459187 -0.923877058109044 2.2959710361314575e-16
  outer loop
    vertex 62.117303196579975 -6.7475687453410025 55.540414847586185
    vertex 82.07303540358302 1.5183943782233127 33.94041484758631
    vertex 82.07303540287887 1.5183943782338571 55.540414847586206
  endloop
endfacet
facet normal -0.9238799318241665 0.38268246833709696 -9.223130004415267e-17
  outer loop
    vertex 10.63801360197493 2.1585929933625354 34.1969979146762
    vertex 11.740121351103022 4.819366354739241 55.79699791467615
    vertex 11.740121351807051 4.819366354728694 34.1969979146762
  endloop
endfacet
facet normal -0.9238799318241665 0.38268246833709696 -9.223130004415267e-17
  outer loop
    vertex 11.740121351103022 4.819366354739241 55.79699791467615
    vertex 10.63801360197493 2.1585929933625354 34.1969979146762
    vertex 10.638013601270893 2.1585929933730847 55.79699791467612
  endloop
endfacet
facet normal 3.259523119465142e-11 -4.884570067972633e-13 -1.0
  outer loop
    vertex 31.695980361299455 -3.446596700082073 34.1969979146762
    vertex 10.63801360197493 2.1585929933625354 34.1969979146762
    vertex 11.740121351807051 4.819366354728694 34.1969979146762
  endloop
endfacet
facet normal 3.259523119465142e-11 -4.884570067972633e-13 -1.0
  outer loop
    vertex 10.63801360197493 2.1585929933625354 34.1969979146762
    vertex 31.695980361299455 -3.446596700082073 34.1969979146762
    vertex 30.59387261146744 -6.107370061448239 34.196997914676196
  endloop
endfacet
facet normal 0.9238799318241682 -0.38268246833709274 1.7026391620129288e-16
  outer loop
    vertex 31.69598036059544 -3.4465967000715336 55.79699791467612
    vertex 30.59387261146744 -6.107370061448239 34.196997914676196
    vertex 31.695980361299455 -3.446596700082073 34.1969979146762
  endloop
endfacet
facet normal 0.9238799318241682 -0.38268246833709274 1.7026391620129288e-16
  outer loop
    vertex 30.59387261146744 -6.107370061448239 34.196997914676196
    vertex 31.69598036059544 -3.4465967000715336 55.79699791467612
    vertex 30.59387261076329 -6.107370061437681 55.79699791467613
  endloop
endfacet
facet normal 0.3826773084367787 0.9238820691016697 -2.052231423385787e-16
  outer loop
    vertex 11.740121351103022 4.819366354739241 55.79699791467615
    vertex 17.51592767006433 2.4269561046872643 50.50063530754384
    vertex 17.515829730166836 2.4269966727479435 39.23677745471855
  endloop
endfacet
facet normal 0.3826773084367787 0.9238820691016697 -2.052231423385787e-16
  outer loop
    vertex 17.51592767006433 2.4269561046872643 50.50063530754384
    vertex 11.740121351103022 4.819366354739241 55.79699791467615
    vertex 31.69598036059544 -3.4465967000715336 55.79699791467612
  endloop
endfacet
facet normal 0.3826773084367787 0.9238820691016697 -2.052231423385787e-16
  outer loop
    vertex 17.51592767006433 2.4269561046872643 50.50063530754384
    vertex 31.69598036059544 -3.4465967000715336 55.79699791467612
    vertex 28.338170644231443 -2.055750480486482 50.50063530754379
  endloop
endfacet
facet normal 0.3826773084367787 0.9238820691016697 -2.052231423385787e-16
  outer loop
    vertex 28.338170644231443 -2.055750480486482 50.50063530754379
    vertex 31.69598036059544 -3.4465967000715336 55.79699791467612
    vertex 31.695980361299455 -3.446596700082073 34.1969979146762
  endloop
endfacet
facet normal 0.3826773084367787 0.9238820691016697 -2.052231423385787e-16
  outer loop
    vertex 11.740121351807051 4.819366354728694 34.1969979146762
    vertex 17.515829730166836 2.4269966727479435 39.23677745471855
    vertex 31.695980361299455 -3.446596700082073 34.1969979146762
  endloop
endfacet
facet normal 0.3826773084367787 0.9238820691016697 -2.052231423385787e-16
  outer loop
    vertex 17.515829730166836 2.4269966727479435 39.23677745471855
    vertex 11.740121351807051 4.819366354728694 34.1969979146762
    vertex 11.740121351103022 4.819366354739241 55.79699791467615
  endloop
endfacet
facet normal 0.3826773084367787 0.9238820691016697 -2.052231423385787e-16
  outer loop
    vertex 31.695980361299455 -3.446596700082073 34.1969979146762
    vertex 17.515829730166836 2.4269966727479435 39.23677745471855
    vertex 28.338170644598463 -2.0557504804919664 39.2367774547185
  endloop
endfacet
facet normal 0.3826773084367787 0.9238820691016697 -2.052231423385787e-16
  outer loop
    vertex 31.695980361299455 -3.446596700082073 34.1969979146762
    vertex 28.338170644598463 -2.0557504804919664 39.2367774547185
    vertex 28.338170644231443 -2.055750480486482 50.50063530754379
  endloop
endfacet
facet normal -3.259523119465142e-11 4.884570067972633e-13 1.0
  outer loop
    vertex 10.638013601270893 2.1585929933730847 55.79699791467612
    vertex 31.69598036059544 -3.4465967000715336 55.79699791467612
    vertex 11.740121351103022 4.819366354739241 55.79699791467615
  endloop
endfacet
facet normal -3.259523119465142e-11 4.884570067972633e-13 1.0
  outer loop
    vertex 31.69598036059544 -3.4465967000715336 55.79699791467612
    vertex 10.638013601270893 2.1585929933730847 55.79699791467612
    vertex 30.59387261076329 -6.107370061437681 55.79699791467613
  endloop
endfacet
facet normal -0.38267730843677855 -0.9238820691016699 2.1722512862731263e-16
  outer loop
    vertex 30.59387261146744 -6.107370061448239 34.196997914676196
    vertex 10.638013601270893 2.1585929933730847 55.79699791467612
    vertex 10.63801360197493 2.1585929933625354 34.1969979146762
  endloop
endfacet
facet normal -0.38267730843677855 -0.9238820691016699 2.1722512862731263e-16
  outer loop
    vertex 10.638013601270893 2.1585929933730847 55.79699791467612
    vertex 30.59387261146744 -6.107370061448239 34.196997914676196
    vertex 30.59387261076329 -6.107370061437681 55.79699791467613
  endloop
endfacet
facet normal 2.276373868267366e-15 -3.7533059273155965e-15 1.0
  outer loop
    vertex 28.338170644231443 -2.055750480486482 50.50063530754379
    vertex 40.849200189383886 2.0771545694841698 50.50063530754378
    vertex 17.51592767006433 2.4269561046872643 50.50063530754384
  endloop
endfacet
facet normal 2.276373868267366e-15 -3.7533059273155965e-15 1.0
  outer loop
    vertex 40.849200189383886 2.0771545694841698 50.50063530754378
    vertex 28.338170644231443 -2.055750480486482 50.50063530754379
    vertex 40.784469943763995 -2.242360448918211 50.50063530754377
  endloop
endfacet
facet normal -4.53911846539961e-15 1.1035626398600472e-14 -1.0
  outer loop
    vertex 74.67192492661117 1.5700433837742638 39.23677745471852
    vertex 52.04706197379893 -2.411222846696362 39.23677745471858
    vertex 52.1117922194189 1.9082921717060062 39.236777454718634
  endloop
endfacet
facet normal -4.53911846539961e-15 1.1035626398600472e-14 -1.0
  outer loop
    vertex 52.04706197379893 -2.411222846696362 39.23677745471858
    vertex 74.67192492661117 1.5700433837742638 39.23677745471852
    vertex 64.60677267357333 -2.5990934084360684 39.236777454718535
  endloop
endfacet
facet normal 0.9998876207862948 -0.014991524216117285 -2.487444750397891e-15
  outer loop
    vertex 52.1117922194189 1.9082921717060062 39.236777454718634
    vertex 52.04706197420118 -2.4112228467023926 26.89584662375905
    vertex 52.111792220161014 1.90829217169494 16.46761608236955
  endloop
endfacet
facet normal 0.9998876207862948 -0.014991524216117285 -2.487444750397891e-15
  outer loop
    vertex 52.04706197420118 -2.4112228467023926 26.89584662375905
    vertex 52.1117922194189 1.9082921717060062 39.236777454718634
    vertex 52.04706197379893 -2.411222846696362 39.23677745471858
  endloop
endfacet
facet normal -0.9998876207862955 0.014991524216081149 2.013763191942253e-15
  outer loop
    vertex 40.78446994454677 -2.2423604489299014 26.488176732893372
    vertex 40.84920018975112 2.07715456947861 39.23677745471852
    vertex 40.84920019050651 2.077154569467369 16.05994619150403
  endloop
endfacet
facet normal -0.9998876207862955 0.014991524216081149 2.013763191942253e-15
  outer loop
    vertex 40.84920018975112 2.07715456947861 39.23677745471852
    vertex 40.78446994454677 -2.2423604489299014 26.488176732893372
    vertex 40.7844699441313 -2.2423604489237157 39.23677745471852
  endloop
endfacet
facet normal -3.259174206882454e-11 4.766395401656982e-13 1.0
  outer loop
    vertex 52.04706197343171 -2.4112228466908534 50.500635307543824
    vertex 74.67192492624386 1.5700433837796295 50.50063530754374
    vertex 52.11179221905171 1.9082921717115509 50.50063530754388
  endloop
endfacet
facet normal -3.259174206882454e-11 4.766395401656982e-13 1.0
  outer loop
    vertex 74.67192492624386 1.5700433837796295 50.50063530754374
    vertex 52.04706197343171 -2.4112228466908534 50.500635307543824
    vertex 64.60574797808 -2.599517852496952 50.50063530754377
  endloop
endfacet
facet normal 3.259566650755695e-11 -4.786982860959526e-13 -1.0
  outer loop
    vertex 40.84920018975112 2.07715456947861 39.23677745471852
    vertex 28.338170644598463 -2.0557504804919664 39.2367774547185
    vertex 17.515829730166836 2.4269966727479435 39.23677745471855
  endloop
endfacet
facet normal 3.259566650755695e-11 -4.786982860959526e-13 -1.0
  outer loop
    vertex 28.338170644598463 -2.0557504804919664 39.2367774547185
    vertex 40.84920018975112 2.07715456947861 39.23677745471852
    vertex 40.7844699441313 -2.2423604489237157 39.23677745471852
  endloop
endfacet
facet normal -0.9998876207862952 0.014991524216094647 -2.2682679187388454e-15
  outer loop
    vertex 40.784469943763995 -2.242360448918211 50.50063530754377
    vertex 40.84920018862803 2.077154569495489 73.6909381153101
    vertex 40.849200189383886 2.0771545694841698 50.50063530754378
  endloop
endfacet
facet normal -0.9998876207862952 0.014991524216094647 -2.2682679187388454e-15
  outer loop
    vertex 40.84920018862803 2.077154569495489 73.6909381153101
    vertex 40.784469943763995 -2.242360448918211 50.50063530754377
    vertex 40.784469943347915 -2.2423604489119224 63.262707573920814
  endloop
endfacet
facet normal 0.999887620786295 -0.014991524216110304 1.409063264545197e-15
  outer loop
    vertex 52.11179221830914 1.908292171722694 73.28326822444465
    vertex 52.04706197343171 -2.4112228466908534 50.500635307543824
    vertex 52.11179221905171 1.9082921717115509 50.50063530754388
  endloop
endfacet
facet normal 0.999887620786295 -0.014991524216110304 1.409063264545197e-15
  outer loop
    vertex 52.04706197343171 -2.4112228466908534 50.500635307543824
    vertex 52.11179221830914 1.908292171722694 73.28326822444465
    vertex 52.04706197302905 -2.4112228466848173 62.85503768305517
  endloop
endfacet
facet normal 0.014989817960848886 0.999887646366013 1.4614063392452805e-06
  outer loop
    vertex 40.84920018975112 2.07715456947861 39.23677745471852
    vertex 52.111792220161014 1.90829217169494 16.46761608236955
    vertex 40.84920019050651 2.077154569467369 16.05994619150403
  endloop
endfacet
facet normal 0.014989817960848886 0.999887646366013 1.4614063392452805e-06
  outer loop
    vertex 52.111792220161014 1.90829217169494 16.46761608236955
    vertex 40.84920018975112 2.07715456947861 39.23677745471852
    vertex 44.61717538131594 2.020404601515235 44.086292333691496
  endloop
endfacet
facet normal 0.014989817960848886 0.999887646366013 1.4614063392452805e-06
  outer loop
    vertex 44.61717538131594 2.020404601515235 44.086292333691496
    vertex 40.84920018975112 2.07715456947861 39.23677745471852
    vertex 44.48181300844904 2.0224323090016614 44.590540509054854
  endloop
endfacet
facet normal 0.014989817960848886 0.999887646366013 1.4614063392452805e-06
  outer loop
    vertex 44.48181300844904 2.0224323090016614 44.590540509054854
    vertex 40.84920018975112 2.07715456947861 39.23677745471852
    vertex 44.48155737641879 2.0224354014195005 45.11264513514601
  endloop
endfacet
facet normal 0.014989817960848886 0.999887646366013 1.4614063392452805e-06
  outer loop
    vertex 52.111792220161014 1.90829217169494 16.46761608236955
    vertex 44.61717538131594 2.020404601515235 44.086292333691496
    vertex 44.87841977300569 2.016490463874475 43.63426428889744
  endloop
endfacet
facet normal 0.014989817960848886 0.999887646366013 1.4614063392452805e-06
  outer loop
    vertex 52.111792220161014 1.90829217169494 16.46761608236955
    vertex 44.87841977300569 2.016490463874475 43.63426428889744
    vertex 45.17771009322522 2.0120161482665164 43.335234599170306
  endloop
endfacet
facet normal 0.014989817960848886 0.999887646366013 1.4614063392452805e-06
  outer loop
    vertex 52.111792220161014 1.90829217169494 16.46761608236955
    vertex 45.17771009322522 2.0120161482665164 43.335234599170306
    vertex 47.751756609445195 1.9734431414414875 43.335773571996214
  endloop
endfacet
facet normal 0.014989817960848886 0.999887646366013 1.4614063392452805e-06
  outer loop
    vertex 52.111792220161014 1.90829217169494 16.46761608236955
    vertex 47.751756609445195 1.9734431414414875 43.335773571996214
    vertex 48.051476025615 1.9689418542130284 43.635818157244174
  endloop
endfacet
facet normal 0.014989817960848886 0.999887646366013 1.4614063392452805e-06
  outer loop
    vertex 52.111792220161014 1.90829217169494 16.46761608236955
    vertex 48.051476025615 1.9689418542130284 43.635818157244174
    vertex 48.3122776496402 1.9650330727970824 44.08810185170678
  endloop
endfacet
facet normal 0.014989817960848886 0.999887646366013 1.4614063392452805e-06
  outer loop
    vertex 52.111792220161014 1.90829217169494 16.46761608236955
    vertex 48.3122776496402 1.9650330727970824 44.08810185170678
    vertex 48.44714617934704 1.9630113394031656 44.592482361076335
  endloop
endfacet
facet normal 0.014989817960848886 0.999887646366013 1.4614063392452805e-06
  outer loop
    vertex 17.51592767006433 2.4269561046872643 50.50063530754384
    vertex 40.84920018975112 2.07715456947861 39.23677745471852
    vertex 17.515829730166836 2.4269966727479435 39.23677745471855
  endloop
endfacet
facet normal 0.014989817960848886 0.999887646366013 1.4614063392452805e-06
  outer loop
    vertex 40.84920018975112 2.07715456947861 39.23677745471852
    vertex 17.51592767006433 2.4269561046872643 50.50063530754384
    vertex 40.849200189383886 2.0771545694841698 50.50063530754378
  endloop
endfacet
facet normal 0.014989817960848886 0.999887646366013 1.4614063392452805e-06
  outer loop
    vertex 40.84920018975112 2.07715456947861 39.23677745471852
    vertex 40.849200189383886 2.0771545694841698 50.50063530754378
    vertex 40.84920018862803 2.077154569495489 73.6909381153101
  endloop
endfacet
facet normal 0.014989817960848886 0.999887646366013 1.4614063392452805e-06
  outer loop
    vertex 40.84920018975112 2.07715456947861 39.23677745471852
    vertex 40.84920018862803 2.077154569495489 73.6909381153101
    vertex 52.11179221830914 1.908292171722694 73.28326822444465
  endloop
endfacet
facet normal 0.014989817960848886 0.999887646366013 1.4614063392452805e-06
  outer loop
    vertex 40.84920018975112 2.07715456947861 39.23677745471852
    vertex 52.11179221830914 1.908292171722694 73.28326822444465
    vertex 44.61642590612565 2.0204136680255833 45.617025644515536
  endloop
endfacet
facet normal 0.014989817960848886 0.999887646366013 1.4614063392452805e-06
  outer loop
    vertex 40.84920018975112 2.07715456947861 39.23677745471852
    vertex 44.61642590612565 2.0204136680255833 45.617025644515536
    vertex 44.48155737641879 2.0224354014195005 45.11264513514601
  endloop
endfacet
facet normal 0.014989817960848886 0.999887646366013 1.4614063392452805e-06
  outer loop
    vertex 44.61642590612565 2.0204136680255833 45.617025644515536
    vertex 52.11179221830914 1.908292171722694 73.28326822444465
    vertex 44.877227530150854 2.0165048866096384 46.06930933897814
  endloop
endfacet
facet normal 0.014989817960848886 0.999887646366013 1.4614063392452805e-06
  outer loop
    vertex 44.877227530150854 2.0165048866096384 46.06930933897814
    vertex 52.11179221830914 1.908292171722694 73.28326822444465
    vertex 45.24618904881221 2.0109754341655885 46.43867383219035
  endloop
endfacet
facet normal 0.014989817960848886 0.999887646366013 1.4614063392452805e-06
  outer loop
    vertex 45.24618904881221 2.0109754341655885 46.43867383219035
    vertex 52.11179221830914 1.908292171722694 73.28326822444465
    vertex 45.698166344350554 2.004202133739652 46.69994754434341
  endloop
endfacet
facet normal 0.014989817960848886 0.999887646366013 1.4614063392452805e-06
  outer loop
    vertex 45.698166344350554 2.004202133739652 46.69994754434341
    vertex 52.11179221830914 1.908292171722694 73.28326822444465
    vertex 46.202357911002885 1.996646574562441 46.83532510372929
  endloop
endfacet
facet normal 0.014989817960848886 0.999887646366013 1.4614063392452805e-06
  outer loop
    vertex 46.202357911002885 1.996646574562441 46.83532510372929
    vertex 52.11179221830914 1.908292171722694 73.28326822444465
    vertex 46.724403926717784 1.9888236555057353 46.83558075339787
  endloop
endfacet
facet normal 0.014989817960848886 0.999887646366013 1.4614063392452805e-06
  outer loop
    vertex 46.724403926717784 1.9888236555057353 46.83558075339787
    vertex 52.11179221830914 1.908292171722694 73.28326822444465
    vertex 47.22872781824604 1.9812664955752628 46.700697071246694
  endloop
endfacet
facet normal 0.014989817960848886 0.999887646366013 1.4614063392452805e-06
  outer loop
    vertex 47.22872781824604 1.9812664955752628 46.700697071246694
    vertex 52.11179221830914 1.908292171722694 73.28326822444465
    vertex 47.68096074581472 1.9744901027314856 46.43986615730859
  endloop
endfacet
facet normal 0.014989817960848886 0.999887646366013 1.4614063392452805e-06
  outer loop
    vertex 47.68096074581472 1.9744901027314856 46.43986615730859
    vertex 52.11179221830914 1.908292171722694 73.28326822444465
    vertex 48.050283782760204 1.9689562769481916 46.0708632073249
  endloop
endfacet
facet normal 0.014989817960848886 0.999887646366013 1.4614063392452805e-06
  outer loop
    vertex 48.050283782760204 1.9689562769481916 46.0708632073249
    vertex 52.11179221830914 1.908292171722694 73.28326822444465
    vertex 48.31152817444989 1.9650421393074289 45.61883516253085
  endloop
endfacet
facet normal 0.014989817960848886 0.999887646366013 1.4614063392452805e-06
  outer loop
    vertex 48.31152817444989 1.9650421393074289 45.61883516253085
    vertex 52.11179221830914 1.908292171722694 73.28326822444465
    vertex 48.446890547316904 1.9630144318210039 45.11458698716744
  endloop
endfacet
facet normal 0.014989817960848886 0.999887646366013 1.4614063392452805e-06
  outer loop
    vertex 48.446890547316904 1.9630144318210039 45.11458698716744
    vertex 52.11179221830914 1.908292171722694 73.28326822444465
    vertex 48.44714617934704 1.9630113394031656 44.592482361076335
  endloop
endfacet
facet normal 0.014989817960848886 0.999887646366013 1.4614063392452805e-06
  outer loop
    vertex 48.44714617934704 1.9630113394031656 44.592482361076335
    vertex 52.11179221830914 1.908292171722694 73.28326822444465
    vertex 52.11179221905171 1.9082921717115509 50.50063530754388
  endloop
endfacet
facet normal 0.014989817960848886 0.999887646366013 1.4614063392452805e-06
  outer loop
    vertex 48.44714617934704 1.9630113394031656 44.592482361076335
    vertex 52.11179221905171 1.9082921717115509 50.50063530754388
    vertex 52.111792220161014 1.90829217169494 16.46761608236955
  endloop
endfacet
facet normal 0.014989817960848886 0.999887646366013 1.4614063392452805e-06
  outer loop
    vertex 52.11179221905171 1.9082921717115509 50.50063530754388
    vertex 52.1117922194189 1.9082921717060062 39.236777454718634
    vertex 52.111792220161014 1.90829217169494 16.46761608236955
  endloop
endfacet
facet normal 0.014989817960848886 0.999887646366013 1.4614063392452805e-06
  outer loop
    vertex 52.1117922194189 1.9082921717060062 39.236777454718634
    vertex 52.11179221905171 1.9082921717115509 50.50063530754388
    vertex 74.67192492624386 1.5700433837796295 50.50063530754374
  endloop
endfacet
facet normal 0.014989817960848886 0.999887646366013 1.4614063392452805e-06
  outer loop
    vertex 52.1117922194189 1.9082921717060062 39.236777454718634
    vertex 74.67192492624386 1.5700433837796295 50.50063530754374
    vertex 74.67192492661117 1.5700433837742638 39.23677745471852
  endloop
endfacet
facet normal -0.014983547176535226 -0.9998877403461117 -4.422122597406511e-06
  outer loop
    vertex 40.7844699441313 -2.2423604489237157 39.23677745471852
    vertex 28.338170644231443 -2.055750480486482 50.50063530754379
    vertex 28.338170644598463 -2.0557504804919664 39.2367774547185
  endloop
endfacet
facet normal -0.014983547176535226 -0.9998877403461117 -4.422122597406511e-06
  outer loop
    vertex 28.338170644231443 -2.055750480486482 50.50063530754379
    vertex 40.7844699441313 -2.2423604489237157 39.23677745471852
    vertex 40.784469943763995 -2.242360448918211 50.50063530754377
  endloop
endfacet
facet normal -0.014983547176535226 -0.9998877403461117 -4.422122597406511e-06
  outer loop
    vertex 52.04706197420118 -2.4112228467023926 26.89584662375905
    vertex 40.7844699441313 -2.2423604489237157 39.23677745471852
    vertex 40.78446994454677 -2.2423604489299014 26.488176732893372
  endloop
endfacet
facet normal -0.014983547176535226 -0.9998877403461117 -4.422122597406511e-06
  outer loop
    vertex 40.7844699441313 -2.2423604489237157 39.23677745471852
    vertex 52.04706197420118 -2.4112228467023926 26.89584662375905
    vertex 44.55245420857967 -2.2986266546965464 44.08628622657166
  endloop
endfacet
facet normal -0.014983547176535226 -0.9998877403461117 -4.422122597406511e-06
  outer loop
    vertex 40.7844699441313 -2.2423604489237157 39.23677745471852
    vertex 44.55245420857967 -2.2986266546965464 44.08628622657166
    vertex 44.4170918357126 -2.296598947210118 44.590534401934995
  endloop
endfacet
facet normal -0.014983547176535226 -0.9998877403461117 -4.422122597406511e-06
  outer loop
    vertex 40.7844699441313 -2.2423604489237157 39.23677745471852
    vertex 44.4170918357126 -2.296598947210118 44.590534401934995
    vertex 44.416836203682394 -2.296595854792282 45.1126390280262
  endloop
endfacet
facet normal -0.014983547176535226 -0.9998877403461117 -4.422122597406511e-06
  outer loop
    vertex 44.55245420857967 -2.2986266546965464 44.08628622657166
    vertex 52.04706197420118 -2.4112228467023926 26.89584662375905
    vertex 44.81369860026919 -2.3025407923372945 43.63425818177763
  endloop
endfacet
facet normal -0.014983547176535226 -0.9998877403461117 -4.422122597406511e-06
  outer loop
    vertex 44.81369860026919 -2.3025407923372945 43.63425818177763
    vertex 52.04706197420118 -2.4112228467023926 26.89584662375905
    vertex 45.11298709922642 -2.307014962079254 43.335228491158254
  endloop
endfacet
facet normal -0.014983547176535226 -0.9998877403461117 -4.422122597406511e-06
  outer loop
    vertex 45.11298709922642 -2.307014962079254 43.335228491158254
    vertex 52.04706197420118 -2.4112228467023926 26.89584662375905
    vertex 47.687033612449 -2.3455879688333465 43.33576134092825
  endloop
endfacet
facet normal -0.014983547176535226 -0.9998877403461117 -4.422122597406511e-06
  outer loop
    vertex 47.687033612449 -2.3455879688333465 43.33576134092825
    vertex 52.04706197420118 -2.4112228467023926 26.89584662375905
    vertex 47.98675485287867 -2.35008940199875 43.635812050124294
  endloop
endfacet
facet normal -0.014983547176535226 -0.9998877403461117 -4.422122597406511e-06
  outer loop
    vertex 47.98675485287867 -2.35008940199875 43.635812050124294
    vertex 52.04706197420118 -2.4112228467023926 26.89584662375905
    vertex 48.247556476903846 -2.353998183414702 44.088095744586916
  endloop
endfacet
facet normal -0.014983547176535226 -0.9998877403461117 -4.422122597406511e-06
  outer loop
    vertex 48.247556476903846 -2.353998183414702 44.088095744586916
    vertex 52.04706197420118 -2.4112228467023926 26.89584662375905
    vertex 48.38242500661072 -2.3560199168086133 44.59247625395654
  endloop
endfacet
facet normal -0.014983547176535226 -0.9998877403461117 -4.422122597406511e-06
  outer loop
    vertex 48.38242500661072 -2.3560199168086133 44.59247625395654
    vertex 52.04706197420118 -2.4112228467023926 26.89584662375905
    vertex 52.04706197343171 -2.4112228466908534 50.500635307543824
  endloop
endfacet
facet normal -0.014983547176535226 -0.9998877403461117 -4.422122597406511e-06
  outer loop
    vertex 52.04706197343171 -2.4112228466908534 50.500635307543824
    vertex 52.04706197420118 -2.4112228467023926 26.89584662375905
    vertex 52.04706197379893 -2.411222846696362 39.23677745471858
  endloop
endfacet
facet normal -0.014983547176535226 -0.9998877403461117 -4.422122597406511e-06
  outer loop
    vertex 52.04706197343171 -2.4112228466908534 50.500635307543824
    vertex 52.04706197379893 -2.411222846696362 39.23677745471858
    vertex 64.60574797808 -2.599517852496952 50.50063530754377
  endloop
endfacet
facet normal -0.014983547176535226 -0.9998877403461117 -4.422122597406511e-06
  outer loop
    vertex 64.60574797808 -2.599517852496952 50.50063530754377
    vertex 52.04706197379893 -2.411222846696362 39.23677745471858
    vertex 64.60677267357333 -2.5990934084360684 39.236777454718535
  endloop
endfacet
facet normal -0.014983547176535226 -0.9998877403461117 -4.422122597406511e-06
  outer loop
    vertex 40.784469943763995 -2.242360448918211 50.50063530754377
    vertex 52.04706197302905 -2.4112228466848173 62.85503768305517
    vertex 40.784469943347915 -2.2423604489119224 63.262707573920814
  endloop
endfacet
facet normal -0.014983547176535226 -0.9998877403461117 -4.422122597406511e-06
  outer loop
    vertex 52.04706197302905 -2.4112228466848173 62.85503768305517
    vertex 40.784469943763995 -2.242360448918211 50.50063530754377
    vertex 40.7844699441313 -2.2423604489237157 39.23677745471852
  endloop
endfacet
facet normal -0.014983547176535226 -0.9998877403461117 -4.422122597406511e-06
  outer loop
    vertex 52.04706197302905 -2.4112228466848173 62.85503768305517
    vertex 40.7844699441313 -2.2423604489237157 39.23677745471852
    vertex 44.551704733389144 -2.298617588186192 45.61701953739574
  endloop
endfacet
facet normal -0.014983547176535226 -0.9998877403461117 -4.422122597406511e-06
  outer loop
    vertex 44.551704733389144 -2.298617588186192 45.61701953739574
    vertex 40.7844699441313 -2.2423604489237157 39.23677745471852
    vertex 44.416836203682394 -2.296595854792282 45.1126390280262
  endloop
endfacet
facet normal -0.014983547176535226 -0.9998877403461117 -4.422122597406511e-06
  outer loop
    vertex 52.04706197302905 -2.4112228466848173 62.85503768305517
    vertex 44.551704733389144 -2.298617588186192 45.61701953739574
    vertex 44.812506357414414 -2.3025263696021367 46.06930323185837
  endloop
endfacet
facet normal -0.014983547176535226 -0.9998877403461117 -4.422122597406511e-06
  outer loop
    vertex 52.04706197302905 -2.4112228466848173 62.85503768305517
    vertex 44.812506357414414 -2.3025263696021367 46.06930323185837
    vertex 45.18146787607581 -2.308055822046188 46.438667725070545
  endloop
endfacet
facet normal -0.014983547176535226 -0.9998877403461117 -4.422122597406511e-06
  outer loop
    vertex 52.04706197302905 -2.4112228466848173 62.85503768305517
    vertex 45.18146787607581 -2.308055822046188 46.438667725070545
    vertex 45.633445171614134 -2.3148291224721302 46.69994143722359
  endloop
endfacet
facet normal -0.014983547176535226 -0.9998877403461117 -4.422122597406511e-06
  outer loop
    vertex 52.04706197302905 -2.4112228466848173 62.85503768305517
    vertex 45.633445171614134 -2.3148291224721302 46.69994143722359
    vertex 46.13763673826645 -2.3223846816493325 46.83531899660948
  endloop
endfacet
facet normal -0.014983547176535226 -0.9998877403461117 -4.422122597406511e-06
  outer loop
    vertex 52.04706197302905 -2.4112228466848173 62.85503768305517
    vertex 46.13763673826645 -2.3223846816493325 46.83531899660948
    vertex 46.65968275398137 -2.330207600706047 46.835574646278054
  endloop
endfacet
facet normal -0.014983547176535226 -0.9998877403461117 -4.422122597406511e-06
  outer loop
    vertex 52.04706197302905 -2.4112228466848173 62.85503768305517
    vertex 46.65968275398137 -2.330207600706047 46.835574646278054
    vertex 47.16400664550957 -2.3377647606365253 46.70069096412688
  endloop
endfacet
facet normal -0.014983547176535226 -0.9998877403461117 -4.422122597406511e-06
  outer loop
    vertex 52.04706197302905 -2.4112228466848173 62.85503768305517
    vertex 47.16400664550957 -2.3377647606365253 46.70069096412688
    vertex 47.616239573078275 -2.344541153480301 46.43986005018874
  endloop
endfacet
facet normal -0.014983547176535226 -0.9998877403461117 -4.422122597406511e-06
  outer loop
    vertex 52.04706197302905 -2.4112228466848173 62.85503768305517
    vertex 47.616239573078275 -2.344541153480301 46.43986005018874
    vertex 47.98556261002379 -2.350074979263582 46.07085710020506
  endloop
endfacet
facet normal -0.014983547176535226 -0.9998877403461117 -4.422122597406511e-06
  outer loop
    vertex 52.04706197302905 -2.4112228466848173 62.85503768305517
    vertex 47.98556261002379 -2.350074979263582 46.07085710020506
    vertex 48.24680700171343 -2.3539891169043443 45.618829055411034
  endloop
endfacet
facet normal -0.014983547176535226 -0.9998877403461117 -4.422122597406511e-06
  outer loop
    vertex 52.04706197302905 -2.4112228466848173 62.85503768305517
    vertex 48.24680700171343 -2.3539891169043443 45.618829055411034
    vertex 48.382169374580336 -2.356016824390777 45.11458088004767
  endloop
endfacet
facet normal -0.014983547176535226 -0.9998877403461117 -4.422122597406511e-06
  outer loop
    vertex 52.04706197302905 -2.4112228466848173 62.85503768305517
    vertex 48.382169374580336 -2.356016824390777 45.11458088004767
    vertex 48.38242500661072 -2.3560199168086133 44.59247625395654
  endloop
endfacet
facet normal -0.014983547176535226 -0.9998877403461117 -4.422122597406511e-06
  outer loop
    vertex 52.04706197302905 -2.4112228466848173 62.85503768305517
    vertex 48.38242500661072 -2.3560199168086133 44.59247625395654
    vertex 52.04706197343171 -2.4112228466908534 50.500635307543824
  endloop
endfacet
facet normal -0.9656905551369424 0.014471349024449407 -0.25929198170540635
  outer loop
    vertex 48.382169374580336 -2.356016824390777 45.11458088004767
    vertex 48.31152817444989 1.9650421393074289 45.61883516253085
    vertex 48.446890547316904 1.9630144318210039 45.11458698716744
  endloop
endfacet
facet normal -0.9656905551369424 0.014471349024449407 -0.25929198170540635
  outer loop
    vertex 48.31152817444989 1.9650421393074289 45.61883516253085
    vertex 48.382169374580336 -2.356016824390777 45.11458088004767
    vertex 48.24680700171343 -2.3539891169043443 45.618829055411034
  endloop
endfacet
facet normal -0.9998876222187006 0.014983430002254779 -0.000489652121716254
  outer loop
    vertex 48.38242500661072 -2.3560199168086133 44.59247625395654
    vertex 48.446890547316904 1.9630144318210039 45.11458698716744
    vertex 48.44714617934704 1.9630113394031656 44.592482361076335
  endloop
endfacet
facet normal -0.9998876222187006 0.014983430002254779 -0.000489652121716254
  outer loop
    vertex 48.446890547316904 1.9630144318210039 45.11458698716744
    vertex 48.38242500661072 -2.3560199168086133 44.59247625395654
    vertex 48.382169374580336 -2.356016824390777 45.11458088004767
  endloop
endfacet
facet normal -0.9659440002386812 0.014474414986695373 0.25834604644485626
  outer loop
    vertex 48.247556476903846 -2.353998183414702 44.088095744586916
    vertex 48.44714617934704 1.9630113394031656 44.592482361076335
    vertex 48.3122776496402 1.9650330727970824 44.08810185170678
  endloop
endfacet
facet normal -0.9659440002386812 0.014474414986695373 0.25834604644485626
  outer loop
    vertex 48.44714617934704 1.9630113394031656 44.592482361076335
    vertex 48.247556476903846 -2.353998183414702 44.088095744586916
    vertex 48.38242500661072 -2.3560199168086133 44.59247625395654
  endloop
endfacet
facet normal -0.8661728909403209 0.01297899250989427 0.49957588888327564
  outer loop
    vertex 47.98675485287867 -2.35008940199875 43.635812050124294
    vertex 48.3122776496402 1.9650330727970824 44.08810185170678
    vertex 48.051476025615 1.9689418542130284 43.635818157244174
  endloop
endfacet
facet normal -0.8661728909403209 0.01297899250989427 0.49957588888327564
  outer loop
    vertex 48.3122776496402 1.9650330727970824 44.08810185170678
    vertex 47.98675485287867 -2.35008940199875 43.635812050124294
    vertex 48.247556476903846 -2.353998183414702 44.088095744586916
  endloop
endfacet
facet normal -0.7073734722974803 0.010598837943302707 0.7067605219054454
  outer loop
    vertex 47.687033612449 -2.3455879688333465 43.33576134092825
    vertex 48.051476025615 1.9689418542130284 43.635818157244174
    vertex 47.751756609445195 1.9734431414414875 43.335773571996214
  endloop
endfacet
facet normal -0.7073734722974803 0.010598837943302707 0.7067605219054454
  outer loop
    vertex 48.051476025615 1.9689418542130284 43.635818157244174
    vertex 47.687033612449 -2.3455879688333465 43.33576134092825
    vertex 47.98675485287867 -2.35008940199875 43.635812050124294
  endloop
endfacet
facet normal 0.706681042082129 -0.010590795325072072 0.7074529947749876
  outer loop
    vertex 44.87841977300569 2.016490463874475 43.63426428889744
    vertex 45.11298709922642 -2.307014962079254 43.335228491158254
    vertex 45.17771009322522 2.0120161482665164 43.335234599170306
  endloop
endfacet
facet normal 0.706681042082129 -0.010590795325072072 0.7074529947749876
  outer loop
    vertex 45.11298709922642 -2.307014962079254 43.335228491158254
    vertex 44.87841977300569 2.016490463874475 43.63426428889744
    vertex 44.81369860026919 -2.3025407923372945 43.63425818177763
  endloop
endfacet
facet normal 0.8656832726017037 -0.01297306952566287 0.5004239912361184
  outer loop
    vertex 44.61717538131594 2.020404601515235 44.086292333691496
    vertex 44.81369860026919 -2.3025407923372945 43.63425818177763
    vertex 44.87841977300569 2.016490463874475 43.63426428889744
  endloop
endfacet
facet normal 0.8656832726017037 -0.01297306952566287 0.5004239912361184
  outer loop
    vertex 44.81369860026919 -2.3025407923372945 43.63425818177763
    vertex 44.61717538131594 2.020404601515235 44.086292333691496
    vertex 44.55245420857967 -2.2986266546965464 44.08628622657166
  endloop
endfacet
facet normal 0.9656905551369405 -0.014471349024449395 0.25929198170541257
  outer loop
    vertex 44.48181300844904 2.0224323090016614 44.590540509054854
    vertex 44.55245420857967 -2.2986266546965464 44.08628622657166
    vertex 44.61717538131594 2.020404601515235 44.086292333691496
  endloop
endfacet
facet normal 0.9656905551369405 -0.014471349024449395 0.25929198170541257
  outer loop
    vertex 44.55245420857967 -2.2986266546965464 44.08628622657166
    vertex 44.48181300844904 2.0224323090016614 44.590540509054854
    vertex 44.4170918357126 -2.296598947210118 44.590534401934995
  endloop
endfacet
facet normal 0.9998876222187006 -0.014983430002254779 0.0004896521217162433
  outer loop
    vertex 44.48155737641879 2.0224354014195005 45.11264513514601
    vertex 44.4170918357126 -2.296598947210118 44.590534401934995
    vertex 44.48181300844904 2.0224323090016614 44.590540509054854
  endloop
endfacet
facet normal 0.9998876222187006 -0.014983430002254779 0.0004896521217162433
  outer loop
    vertex 44.4170918357126 -2.296598947210118 44.590534401934995
    vertex 44.48155737641879 2.0224354014195005 45.11264513514601
    vertex 44.416836203682394 -2.296595854792282 45.1126390280262
  endloop
endfacet
facet normal 0.9659440002386812 -0.014474414986695373 -0.25834604644485626
  outer loop
    vertex 44.61642590612565 2.0204136680255833 45.617025644515536
    vertex 44.416836203682394 -2.296595854792282 45.1126390280262
    vertex 44.48155737641879 2.0224354014195005 45.11264513514601
  endloop
endfacet
facet normal 0.9659440002386812 -0.014474414986695373 -0.25834604644485626
  outer loop
    vertex 44.416836203682394 -2.296595854792282 45.1126390280262
    vertex 44.61642590612565 2.0204136680255833 45.617025644515536
    vertex 44.551704733389144 -2.298617588186192 45.61701953739574
  endloop
endfacet
facet normal 0.8661728909403209 -0.01297899250989427 -0.49957588888327564
  outer loop
    vertex 44.877227530150854 2.0165048866096384 46.06930933897814
    vertex 44.551704733389144 -2.298617588186192 45.61701953739574
    vertex 44.61642590612565 2.0204136680255833 45.617025644515536
  endloop
endfacet
facet normal 0.8661728909403209 -0.01297899250989427 -0.49957588888327564
  outer loop
    vertex 44.551704733389144 -2.298617588186192 45.61701953739574
    vertex 44.877227530150854 2.0165048866096384 46.06930933897814
    vertex 44.812506357414414 -2.3025263696021367 46.06930323185837
  endloop
endfacet
facet normal 0.7073735305427827 -0.010599073142343462 -0.7067604600824542
  outer loop
    vertex 45.24618904881221 2.0109754341655885 46.43867383219035
    vertex 44.812506357414414 -2.3025263696021367 46.06930323185837
    vertex 44.877227530150854 2.0165048866096384 46.06930933897814
  endloop
endfacet
facet normal 0.7073735305427827 -0.010599073142343462 -0.7067604600824542
  outer loop
    vertex 44.812506357414414 -2.3025263696021367 46.06930323185837
    vertex 45.24618904881221 2.0109754341655885 46.43867383219035
    vertex 45.18146787607581 -2.308055822046188 46.438667725070545
  endloop
endfacet
facet normal 0.5003678330287609 -0.007496844455938158 -0.8657804739039254
  outer loop
    vertex 45.633445171614134 -2.3148291224721302 46.69994143722359
    vertex 45.24618904881221 2.0109754341655885 46.43867383219035
    vertex 45.698166344350554 2.004202133739652 46.69994754434341
  endloop
endfacet
facet normal 0.5003678330287609 -0.007496844455938158 -0.8657804739039254
  outer loop
    vertex 45.24618904881221 2.0109754341655885 46.43867383219035
    vertex 45.633445171614134 -2.3148291224721302 46.69994143722359
    vertex 45.18146787607581 -2.308055822046188 46.438667725070545
  endloop
endfacet
facet normal 0.25926289459078083 -0.0038837182089820365 -0.9657989791987165
  outer loop
    vertex 46.13763673826645 -2.3223846816493325 46.83531899660948
    vertex 45.698166344350554 2.004202133739652 46.69994754434341
    vertex 46.202357911002885 1.996646574562441 46.83532510372929
  endloop
endfacet
facet normal 0.25926289459078083 -0.0038837182089820365 -0.9657989791987165
  outer loop
    vertex 45.698166344350554 2.004202133739652 46.69994754434341
    vertex 46.13763673826645 -2.3223846816493325 46.83531899660948
    vertex 45.633445171614134 -2.3148291224721302 46.69994143722359
  endloop
endfacet
facet normal 0.0004896183386228613 -5.922984231486623e-06 -0.999999880119393
  outer loop
    vertex 46.65968275398137 -2.330207600706047 46.835574646278054
    vertex 46.202357911002885 1.996646574562441 46.83532510372929
    vertex 46.724403926717784 1.9888236555057353 46.83558075339787
  endloop
endfacet
facet normal 0.0004896183386228613 -5.922984231486623e-06 -0.999999880119393
  outer loop
    vertex 46.202357911002885 1.996646574562441 46.83532510372929
    vertex 46.65968275398137 -2.330207600706047 46.835574646278054
    vertex 46.13763673826645 -2.3223846816493325 46.83531899660948
  endloop
endfacet
facet normal -0.2583170245941864 0.0038722758821063377 -0.9660524417878665
  outer loop
    vertex 47.22872781824604 1.9812664955752628 46.700697071246694
    vertex 46.65968275398137 -2.330207600706047 46.835574646278054
    vertex 46.724403926717784 1.9888236555057353 46.83558075339787
  endloop
endfacet
facet normal -0.2583170245941864 0.0038722758821063377 -0.9660524417878665
  outer loop
    vertex 46.65968275398137 -2.330207600706047 46.835574646278054
    vertex 47.22872781824604 1.9812664955752628 46.700697071246694
    vertex 47.16400664550957 -2.3377647606365253 46.70069096412688
  endloop
endfacet
facet normal -0.499519789189941 0.007486585546316664 -0.8662701260256493
  outer loop
    vertex 47.68096074581472 1.9744901027314856 46.43986615730859
    vertex 47.16400664550957 -2.3377647606365253 46.70069096412688
    vertex 47.22872781824604 1.9812664955752628 46.700697071246694
  endloop
endfacet
facet normal -0.499519789189941 0.007486585546316664 -0.8662701260256493
  outer loop
    vertex 47.16400664550957 -2.3377647606365253 46.70069096412688
    vertex 47.68096074581472 1.9744901027314856 46.43986615730859
    vertex 47.616239573078275 -2.344541153480301 46.43986005018874
  endloop
endfacet
facet normal -0.7066811056478979 0.010590696777713304 -0.7074529327538525
  outer loop
    vertex 48.050283782760204 1.9689562769481916 46.0708632073249
    vertex 47.616239573078275 -2.344541153480301 46.43986005018874
    vertex 47.68096074581472 1.9744901027314856 46.43986615730859
  endloop
endfacet
facet normal -0.7066811056478979 0.010590696777713304 -0.7074529327538525
  outer loop
    vertex 47.616239573078275 -2.344541153480301 46.43986005018874
    vertex 48.050283782760204 1.9689562769481916 46.0708632073249
    vertex 47.98556261002379 -2.350074979263582 46.07085710020506
  endloop
endfacet
facet normal -0.8656832726017037 0.01297306952566287 -0.5004239912361184
  outer loop
    vertex 48.24680700171343 -2.3539891169043443 45.618829055411034
    vertex 48.050283782760204 1.9689562769481916 46.0708632073249
    vertex 48.31152817444989 1.9650421393074289 45.61883516253085
  endloop
endfacet
facet normal -0.8656832726017037 0.01297306952566287 -0.5004239912361184
  outer loop
    vertex 48.050283782760204 1.9689562769481916 46.0708632073249
    vertex 48.24680700171343 -2.3539891169043443 45.618829055411034
    vertex 47.98556261002379 -2.350074979263582 46.07085710020506
  endloop
endfacet
facet normal -0.0002081830450000653 9.96679662338622e-07 0.9999999783294129
  outer loop
    vertex 45.17771009322522 2.0120161482665164 43.335234599170306
    vertex 47.687033612449 -2.3455879688333465 43.33576134092825
    vertex 47.751756609445195 1.9734431414414875 43.335773571996214
  endloop
endfacet
facet normal -0.0002081830450000653 9.96679662338622e-07 0.9999999783294129
  outer loop
    vertex 47.687033612449 -2.3455879688333465 43.33576134092825
    vertex 45.17771009322522 2.0120161482665164 43.335234599170306
    vertex 45.11298709922642 -2.307014962079254 43.335228491158254
  endloop
endfacet
endsolid texture_stim
